<svg width="176" height="49" viewBox="0 0 176 49" fill="none" xmlns="http://www.w3.org/2000/svg">
<path d="M20.3478 16.1149L20.3262 16.1022L20.2758 16.087C20.2962 16.1039 20.3214 16.1137 20.3478 16.1149Z" fill="#0E1422"/>
<path d="M20.3575 16.1114C20.3542 16.111 20.3514 16.1103 20.3485 16.1093C20.3481 16.1112 20.3481 16.1132 20.3485 16.1152C20.3517 16.1148 20.3546 16.1134 20.3575 16.1114Z" fill="#0E1422"/>
<path d="M20.3481 16.116H20.3528V16.1132L20.3481 16.116Z" fill="#0E1422"/>
<path d="M20.6463 18.3512L20.6828 18.3305L20.6964 18.3229L20.7087 18.3098C20.6857 18.3198 20.6644 18.3338 20.6463 18.3512Z" fill="#0E1422"/>
<path d="M20.4101 16.164L20.3743 16.1303L20.3501 16.1172C20.3633 16.14 20.3846 16.1568 20.4101 16.164Z" fill="#0E1422"/>
<path d="M11.4265 37.9039C11.3979 37.9161 11.3729 37.9353 11.3538 37.9596L11.3763 37.9452C11.3916 37.9314 11.4133 37.9148 11.4265 37.9039Z" fill="#0E1422"/>
<path d="M16.6438 36.8855C16.6438 36.8535 16.6281 36.8592 16.6319 36.9732C16.6319 36.9639 16.6358 36.9547 16.6374 36.9457C16.6396 36.9255 16.6413 36.9057 16.6438 36.8855Z" fill="#0E1422"/>
<path d="M16.1051 37.9039C16.0765 37.9161 16.0515 37.9353 16.0323 37.9596L16.0549 37.9452C16.0702 37.9314 16.0919 37.9148 16.1051 37.9039Z" fill="#0E1422"/>
<path d="M7.74997 38.1463C7.7283 38.1278 7.70175 38.1153 7.6734 38.1108C7.69636 38.122 7.71932 38.1329 7.73466 38.1412L7.74997 38.1463Z" fill="#0E1422"/>
<path d="M6.9243 37.3607C6.92094 37.3274 6.91064 37.2954 6.8941 37.2663C6.90583 37.2964 6.91561 37.3274 6.92346 37.3591L6.9243 37.3607Z" fill="#0E1422"/>
<path d="M12.4776 23.3066C11.3424 23.7888 10.0541 24.3356 8.38452 24.3356C7.68607 24.3342 6.99103 24.2391 6.31824 24.0529L7.47299 35.8174C7.51385 36.309 7.73961 36.7676 8.10538 37.1017C8.47115 37.436 8.9502 37.6214 9.44742 37.6211C9.44742 37.6211 11.0847 37.7057 11.6311 37.7057C12.219 37.7057 13.9822 37.6211 13.9822 37.6211C14.4793 37.6211 14.9583 37.4357 15.324 37.1017C15.6897 36.7673 15.9154 36.309 15.9562 35.8174L17.193 22.8172C16.6403 22.6299 16.0825 22.5054 15.4537 22.5054C14.3661 22.505 13.4899 22.8767 12.4776 23.3066Z" fill="white"/>
<path d="M2.746 18.2876L2.76557 18.3057L2.77833 18.3133C2.76851 18.3036 2.75766 18.295 2.746 18.2876Z" fill="#0E1422"/>
<path d="M22.535 17.2019L22.3614 16.3315C22.2052 15.5506 21.8511 14.8127 21.0433 14.5305C20.7845 14.4402 20.4904 14.4014 20.292 14.2145C20.0935 14.0276 20.0347 13.7373 19.9889 13.4682C19.904 12.9741 19.824 12.4797 19.7368 11.9865C19.6616 11.5625 19.6019 11.0862 19.406 10.6972C19.151 10.1749 18.6217 9.86947 18.0953 9.66738C17.8255 9.56746 17.5502 9.48294 17.2709 9.41425C15.9558 9.06997 14.5732 8.9434 13.2203 8.87128C11.5965 8.78237 9.96837 8.80915 8.34841 8.95144C7.14267 9.06026 5.87272 9.19192 4.72691 9.60576C4.30811 9.75725 3.8766 9.93906 3.55815 10.2601C3.16743 10.6546 3.03988 11.2647 3.32516 11.7565C3.52797 12.1059 3.8715 12.3527 4.23585 12.5159C4.71045 12.7263 5.20609 12.8864 5.71454 12.9935C7.13033 13.304 8.59673 13.426 10.0431 13.4779C11.6462 13.5421 13.252 13.49 14.8474 13.3222C15.242 13.2792 15.6358 13.2275 16.029 13.1674C16.4919 13.0969 16.7891 12.4961 16.6527 12.0776C16.4894 11.5773 16.0507 11.3832 15.5545 11.4587C15.4814 11.4701 15.4086 11.4806 15.3355 11.4912L15.2828 11.4988C15.1147 11.5199 14.9466 11.5396 14.7785 11.5579C14.4313 11.595 14.0833 11.6254 13.7344 11.649C12.9529 11.703 12.1693 11.7279 11.3862 11.7291C10.6167 11.7291 9.8467 11.7076 9.07885 11.6574C8.72851 11.6346 8.37904 11.6057 8.03041 11.5705C7.87181 11.554 7.71367 11.5367 7.55549 11.5173L7.40499 11.4984L7.37226 11.4937L7.21622 11.4714C6.89735 11.4237 6.57847 11.3688 6.26302 11.3026C6.2312 11.2956 6.2027 11.278 6.1823 11.2528C6.1619 11.2276 6.15077 11.1962 6.15077 11.1638C6.15077 11.1315 6.1619 11.1001 6.1823 11.0748C6.2027 11.0496 6.2312 11.032 6.26302 11.025H6.26896C6.54236 10.9672 6.81785 10.9178 7.09419 10.8748C7.18633 10.8605 7.27874 10.8464 7.3714 10.8326H7.37394C7.547 10.8212 7.7209 10.7904 7.89308 10.7702C9.3912 10.6155 10.8982 10.5628 12.4036 10.6124C13.1344 10.6335 13.8649 10.6761 14.5923 10.7495C14.7488 10.7656 14.9044 10.7824 15.06 10.8014C15.1195 10.8086 15.1795 10.817 15.2394 10.8242L15.3602 10.8415C15.7122 10.8935 16.0624 10.9567 16.4107 11.0309C16.9269 11.1423 17.5896 11.1786 17.8194 11.7397C17.8923 11.9177 17.9256 12.1156 17.9659 12.3025L18.0176 12.5408C18.0189 12.5451 18.0198 12.5495 18.0205 12.5539C18.1421 13.1164 18.2638 13.6789 18.3855 14.2415C18.3945 14.283 18.3949 14.326 18.3861 14.3676C18.3777 14.4092 18.3606 14.4487 18.3361 14.4835C18.3116 14.5183 18.28 14.5477 18.2435 14.5698C18.207 14.592 18.166 14.6065 18.1237 14.6123H18.1202L18.046 14.6224L17.9724 14.6321C17.7394 14.6622 17.506 14.6904 17.2725 14.7165C16.8125 14.7685 16.3518 14.8136 15.8903 14.8515C14.9734 14.9272 14.0547 14.9768 13.134 15.0004C12.6649 15.0128 12.196 15.0186 11.7272 15.0177C9.86115 15.0163 7.99675 14.9087 6.14312 14.6954C5.94244 14.6718 5.74178 14.6465 5.5411 14.6207C5.6967 14.6406 5.42801 14.6056 5.3736 14.598C5.24605 14.5803 5.1185 14.5618 4.99095 14.5427C4.56279 14.479 4.13722 14.4005 3.70994 14.3318C3.19335 14.2474 2.69932 14.2896 2.23208 14.5427C1.84853 14.751 1.53811 15.0704 1.34221 15.4582C1.14068 15.8716 1.08075 16.3218 0.990607 16.766C0.900464 17.2103 0.760166 17.6883 0.813322 18.1444C0.927671 19.1286 1.62112 19.9285 2.61854 20.1074C3.55686 20.2761 4.50031 20.4129 5.44628 20.5293C9.16231 20.9809 12.9165 21.0349 16.6441 20.6905C16.9477 20.6623 17.2509 20.6317 17.5535 20.5985C17.648 20.5882 17.7439 20.599 17.8336 20.6301C17.9233 20.6613 18.005 20.7119 18.0724 20.7784C18.1399 20.8449 18.1918 20.9256 18.2238 21.0144C18.2558 21.1033 18.2674 21.1982 18.2577 21.2921L18.1631 22.2025C17.973 24.0422 17.7829 25.8818 17.5928 27.7212C17.3943 29.6529 17.1946 31.5844 16.9937 33.5157C16.9369 34.0598 16.8803 34.6036 16.8236 35.1474C16.7691 35.6826 16.7615 36.235 16.659 36.7641C16.4975 37.5958 15.9299 38.107 15.1017 38.2937C14.3429 38.465 13.5678 38.555 12.7897 38.562C11.927 38.5665 11.0648 38.5287 10.2021 38.5332C9.28125 38.5383 8.15328 38.4541 7.4424 37.7739C6.81785 37.1766 6.73155 36.2411 6.64651 35.4324C6.53313 34.3618 6.42075 33.2912 6.30937 32.2205L5.68437 26.2682L5.28003 22.4168C5.27325 22.3531 5.26644 22.2902 5.26005 22.2261C5.21161 21.7667 4.8838 21.317 4.36724 21.3401C3.92505 21.3596 3.42253 21.7325 3.4744 22.2261L3.77413 25.0814L4.394 30.9879C4.5706 32.6657 4.74676 34.3436 4.92249 36.0217C4.95651 36.3433 4.9884 36.6658 5.02409 36.987C5.21839 38.7439 6.5704 39.6906 8.24468 39.9571C9.22257 40.1134 10.2242 40.1454 11.2166 40.1614C12.4886 40.1816 13.7735 40.2303 15.0247 40.0016C16.8789 39.6641 18.27 38.4355 18.4684 36.5297C18.5252 35.9798 18.582 35.4292 18.6385 34.879C18.827 33.0587 19.0152 31.2382 19.2033 29.4176L19.8178 23.469L20.0999 20.7428C20.1138 20.6076 20.1716 20.4805 20.2639 20.3803C20.3565 20.28 20.4791 20.212 20.6134 20.1863C21.1437 20.0838 21.6504 19.9087 22.0277 19.5083C22.628 18.8708 22.7474 18.0397 22.535 17.2019ZM2.59133 17.79C2.5994 17.7862 2.58452 17.8549 2.57816 17.887C2.57687 17.8385 2.57942 17.7955 2.59133 17.79ZM2.64278 18.1849C2.64704 18.1819 2.65978 18.1988 2.67295 18.219C2.65297 18.2005 2.64023 18.1866 2.64236 18.1849H2.64278ZM2.69338 18.2511C2.71165 18.2819 2.72143 18.3013 2.69338 18.2511V18.2511ZM2.79498 18.333H2.79753C2.79753 18.3359 2.80221 18.3388 2.80392 18.3418C2.80108 18.3386 2.79795 18.3356 2.79456 18.333H2.79498ZM20.5889 18.2106C20.3985 18.3903 20.1112 18.4739 19.8278 18.5156C16.6476 18.9839 13.421 19.221 10.2059 19.1164C7.90499 19.0383 5.62824 18.7848 3.35024 18.4654C3.12702 18.4342 2.88513 18.3937 2.73163 18.2304C2.44251 17.9224 2.58452 17.3023 2.65978 16.9302C2.72866 16.5893 2.86047 16.1349 3.26903 16.0864C3.90678 16.0121 4.64742 16.2792 5.27835 16.3741C6.03797 16.4891 6.80042 16.5813 7.56572 16.6505C10.8318 16.9458 14.1527 16.8998 17.4043 16.4678C17.9969 16.3887 18.5875 16.2969 19.1759 16.1923C19.7004 16.099 20.2813 15.924 20.5982 16.4627C20.8154 16.8297 20.8442 17.3208 20.8106 17.7355C20.8003 17.9162 20.7209 18.0862 20.5882 18.2106H20.5889Z" fill="#0E1422"/>
<path fill-rule="evenodd" clip-rule="evenodd" d="M39.8785 26.9787C39.6929 27.3304 39.4376 27.6367 39.1126 27.8966C38.7876 28.1567 38.4087 28.3684 37.9752 28.5315C37.5421 28.6949 37.1061 28.8046 36.6678 28.8605C36.2292 28.9166 35.8035 28.9117 35.3913 28.8451C34.9785 28.7789 34.6274 28.6439 34.3389 28.4397L34.6642 25.0892C34.963 24.9873 35.3394 24.8827 35.7935 24.7756C36.2473 24.6686 36.7139 24.5919 37.1939 24.5461C37.6738 24.5001 38.1273 24.5055 38.5555 24.5615C38.9835 24.6175 39.3214 24.7526 39.569 24.9669C39.7032 25.0892 39.8168 25.2218 39.9095 25.3646C40.0024 25.5075 40.0589 25.6554 40.0799 25.8083C40.1312 26.2367 40.0644 26.6268 39.8785 26.9787ZM35.159 19.8416C35.3755 19.7091 35.6363 19.5916 35.9403 19.4895C36.2447 19.3879 36.5568 19.3162 36.8766 19.2755C37.1961 19.2349 37.5082 19.2295 37.8129 19.2601C38.1169 19.2908 38.3854 19.3749 38.6175 19.5125C38.8496 19.6503 39.0222 19.8492 39.1358 20.1091C39.2491 20.3694 39.2801 20.6984 39.2285 21.0961C39.1875 21.4123 39.0606 21.6801 38.8496 21.8993C38.6382 22.1188 38.38 22.3022 38.0759 22.4501C37.7716 22.5982 37.4492 22.7154 37.109 22.8018C36.7682 22.8887 36.4406 22.9526 36.1262 22.9932C35.8115 23.0341 35.5382 23.0598 35.3061 23.0696C35.0741 23.0799 34.9217 23.085 34.8494 23.085L35.159 19.8416ZM41.5497 24.8138C41.3847 24.457 41.163 24.1434 40.8845 23.8728C40.6059 23.6026 40.2754 23.4064 39.894 23.2839C40.0589 23.1513 40.2216 22.9423 40.3816 22.6566C40.5414 22.3713 40.6779 22.06 40.7915 21.7234C40.9048 21.3866 40.9826 21.0477 41.0236 20.706C41.0646 20.3643 41.0491 20.0711 40.9774 19.8261C40.8015 19.2143 40.5259 18.7349 40.1493 18.3881C39.7726 18.0414 39.3343 17.8017 38.8341 17.669C38.3335 17.5368 37.7819 17.5084 37.1784 17.5849C36.5748 17.6614 35.9584 17.8118 35.3294 18.0362C35.3294 17.9853 35.3345 17.9318 35.3449 17.8756C35.3549 17.8198 35.36 17.7609 35.36 17.6996C35.36 17.5467 35.2829 17.4143 35.128 17.3019C34.9734 17.1897 34.7955 17.1235 34.5945 17.103C34.3931 17.0828 34.1972 17.1259 34.0061 17.233C33.8154 17.3401 33.6837 17.5368 33.6117 17.8219C33.5291 18.74 33.4465 19.6937 33.3642 20.6829C33.2815 21.6723 33.1938 22.6719 33.1011 23.6818C33.0082 24.6915 32.9152 25.6936 32.8226 26.688C32.7296 27.6825 32.6367 28.6386 32.5441 29.5565C32.5751 29.8319 32.6522 30.0462 32.7761 30.1991C32.8997 30.3523 33.0443 30.4441 33.2092 30.4746C33.3742 30.5052 33.5472 30.4769 33.7276 30.3903C33.908 30.3039 34.0655 30.1531 34.1998 29.9391C34.6122 30.1634 35.0767 30.3088 35.5924 30.3752C36.1082 30.4414 36.6313 30.4414 37.1632 30.3752C37.6941 30.3088 38.2176 30.184 38.7334 30.0002C39.2491 29.8168 39.7187 29.5872 40.1415 29.3119C40.5646 29.0365 40.9203 28.7226 41.2095 28.371C41.498 28.0189 41.6891 27.639 41.7817 27.2312C41.8747 26.813 41.9005 26.3949 41.8592 25.9766C41.8179 25.5585 41.7146 25.1711 41.5497 24.8138Z" fill="#0E1422"/>
<path fill-rule="evenodd" clip-rule="evenodd" d="M56.6461 32.8915C56.5896 33.2281 56.5093 33.5826 56.4063 33.9551C56.303 34.3269 56.182 34.6664 56.0429 34.9725C55.9035 35.2784 55.7489 35.5253 55.5788 35.7143C55.4084 35.9029 55.2251 35.982 55.0292 35.9516C54.8746 35.9308 54.7764 35.8341 54.7355 35.6608C54.6938 35.4872 54.6938 35.273 54.7355 35.0183C54.7764 34.7631 54.8562 34.4749 54.9749 34.1536C55.0937 33.8324 55.2383 33.5134 55.4084 33.1977C55.5788 32.8812 55.7721 32.578 55.9887 32.2872C56.2052 31.9967 56.4321 31.7543 56.6694 31.5606C56.721 31.6217 56.7442 31.7747 56.7391 32.0196C56.7336 32.2644 56.7029 32.5552 56.6461 32.8915ZM61.892 26.2517C61.7526 26.0988 61.5825 26.0122 61.3811 25.9916C61.1801 25.9712 60.9761 26.0834 60.7702 26.3282C60.6359 26.573 60.4655 26.8076 60.2593 27.032C60.053 27.2566 59.839 27.4604 59.6173 27.644C59.3953 27.8274 59.1839 27.9858 58.9828 28.1182C58.7817 28.2509 58.6242 28.3477 58.5109 28.4089C58.4696 28.0826 58.4461 27.7307 58.4412 27.3532C58.4357 26.9759 58.4438 26.5935 58.4645 26.2059C58.4951 25.6551 58.5597 25.0994 58.6578 24.5382C58.7559 23.9773 58.8976 23.4265 59.0835 22.8857C59.0835 22.6004 59.016 22.3683 58.8821 22.1897C58.7478 22.0113 58.5855 21.899 58.3948 21.8531C58.2037 21.8073 58.0081 21.8328 57.8067 21.9296C57.6056 22.0267 57.433 22.2027 57.2884 22.4574C57.1648 22.7941 57.0228 23.1714 56.863 23.5895C56.7029 24.0078 56.5225 24.4336 56.3214 24.8671C56.12 25.3008 55.8957 25.7214 55.6482 26.1293C55.4006 26.5374 55.1299 26.8996 54.8358 27.2156C54.5418 27.5318 54.222 27.7793 53.8766 27.9576C53.5306 28.1362 53.1572 28.2152 52.7548 28.1948C52.5689 28.1438 52.4346 28.0062 52.3523 27.7816C52.2697 27.5574 52.2206 27.2767 52.2054 26.9402C52.19 26.6036 52.2054 26.2339 52.2516 25.8309C52.2981 25.4282 52.36 25.0278 52.4375 24.6301C52.5146 24.2322 52.5998 23.8548 52.6925 23.4979C52.7854 23.141 52.8729 22.8399 52.9555 22.5952C53.0794 22.2995 53.0794 22.0519 52.9555 21.8531C52.8319 21.6542 52.6618 21.5218 52.4453 21.4552C52.2287 21.3891 52.0015 21.3918 51.7643 21.463C51.527 21.5344 51.3566 21.6924 51.2537 21.9372C51.0781 22.3557 50.918 22.8246 50.7737 23.3448C50.6295 23.865 50.5133 24.4032 50.4258 24.9589C50.338 25.5149 50.2887 26.0658 50.2787 26.6114C50.278 26.6469 50.2796 26.6807 50.2796 26.716C50.0547 27.3089 49.8404 27.7571 49.6367 28.057C49.3737 28.4448 49.0767 28.6131 48.7469 28.5618C48.602 28.5007 48.5071 28.358 48.4606 28.1335C48.4138 27.9093 48.3987 27.6339 48.4138 27.3072C48.4296 26.9811 48.4684 26.6114 48.53 26.1982C48.5923 25.7851 48.6691 25.3568 48.7621 24.913C48.855 24.4692 48.9531 24.0233 49.0561 23.5744C49.1594 23.1256 49.252 22.7023 49.3349 22.3044C49.3246 21.9475 49.2188 21.6748 49.0174 21.4859C48.8166 21.2974 48.5352 21.2235 48.1744 21.2641C47.9268 21.3661 47.7435 21.4989 47.625 21.662C47.5063 21.825 47.4107 22.0342 47.3388 22.2891C47.2971 22.4219 47.2355 22.687 47.1529 23.0849C47.0702 23.4824 46.9647 23.9391 46.8356 24.454C46.7068 24.9693 46.5545 25.5072 46.3792 26.0681C46.204 26.629 46.0078 27.1368 45.7915 27.5904C45.5746 28.0442 45.3374 28.4089 45.0795 28.6843C44.8217 28.9595 44.5431 29.0719 44.2439 29.0209C44.0787 28.9902 43.9732 28.8219 43.9267 28.516C43.8802 28.2099 43.8728 27.8328 43.9035 27.3839C43.9344 26.9351 43.9964 26.4429 44.089 25.9076C44.182 25.3721 44.2772 24.8647 44.3753 24.3851C44.4734 23.9059 44.5638 23.4824 44.6464 23.1153C44.7287 22.7481 44.7855 22.5034 44.8165 22.3811C44.8165 22.0853 44.749 21.8483 44.6154 21.6695C44.4812 21.4913 44.3188 21.379 44.1278 21.333C43.9367 21.2872 43.7408 21.3126 43.54 21.4094C43.3386 21.5065 43.166 21.6825 43.0214 21.9372C42.9697 22.2126 42.9026 22.5315 42.8203 22.8935C42.7377 23.2555 42.658 23.6278 42.5805 24.0103C42.5031 24.3929 42.4308 24.7677 42.3639 25.1349C42.2968 25.5021 42.2478 25.8234 42.2168 26.0988C42.1961 26.3129 42.1729 26.5757 42.1474 26.8866C42.1212 27.1979 42.1083 27.5267 42.1083 27.8734C42.1083 28.2204 42.1342 28.5646 42.1861 28.9062C42.2374 29.248 42.3304 29.5616 42.4643 29.847C42.5983 30.1327 42.7867 30.3671 43.0295 30.5507C43.2715 30.7343 43.5784 30.8362 43.9499 30.8568C44.3314 30.877 44.6642 30.8492 44.9482 30.7726C45.2316 30.6961 45.4894 30.5762 45.7218 30.4129C45.9539 30.2501 46.1653 30.0562 46.3563 29.8316C46.5467 29.6074 46.7352 29.3627 46.9208 29.0974C47.0964 29.4852 47.3233 29.7858 47.6018 30.0001C47.8803 30.2142 48.1744 30.3419 48.4839 30.3825C48.7931 30.423 49.1081 30.3801 49.4279 30.2524C49.7474 30.1251 50.0363 29.9083 50.2941 29.6022C50.4642 29.4145 50.6243 29.2012 50.7747 28.9654C50.8386 29.0758 50.9064 29.1823 50.9829 29.2808C51.2356 29.6074 51.5787 29.8316 52.0121 29.9541C52.4762 30.0766 52.9297 30.0971 53.3735 30.0154C53.8169 29.9339 54.24 29.7858 54.6422 29.5717C55.0446 29.3574 55.4184 29.1001 55.7644 28.799C56.1097 28.4982 56.4115 28.1847 56.6694 27.8581C56.659 28.0927 56.6539 28.3148 56.6539 28.5236C56.6539 28.7328 56.6487 28.9595 56.6387 29.2045C56.1226 29.5616 55.6353 29.99 55.1763 30.4896C54.7171 30.9892 54.3146 31.5222 53.9693 32.0883C53.6236 32.6542 53.3528 33.2281 53.1572 33.8094C52.961 34.391 52.8655 34.9341 52.8706 35.4392C52.8758 35.9439 52.9968 36.3849 53.2344 36.7622C53.4713 37.1398 53.8582 37.4097 54.3946 37.5731C54.952 37.7467 55.4416 37.7515 55.8651 37.5884C56.2879 37.4251 56.6564 37.1548 56.9711 36.7775C57.2858 36.4003 57.5437 35.9439 57.7451 35.4084C57.9461 34.8729 58.1059 34.3144 58.2247 33.7331C58.3431 33.1519 58.418 32.5802 58.449 32.0196C58.48 31.4585 58.48 30.9585 58.449 30.5201C59.3362 30.153 60.0634 29.6889 60.6307 29.1278C61.1981 28.5673 61.6674 27.9755 62.0389 27.3532C62.1522 27.2002 62.1909 27.0166 62.1551 26.8025C62.1186 26.5883 62.0311 26.4047 61.892 26.2517Z" fill="#0E1422"/>
<path fill-rule="evenodd" clip-rule="evenodd" d="M81.412 25.273C81.443 25.0385 81.4895 24.791 81.5511 24.5309C81.6131 24.2709 81.6906 24.0183 81.7835 23.7736C81.8761 23.5288 81.9846 23.3173 82.1085 23.1387C82.2321 22.9603 82.3638 22.8328 82.5029 22.7561C82.6423 22.6799 82.7837 22.6874 82.9286 22.779C83.0832 22.8711 83.1784 23.0648 83.2149 23.3604C83.2507 23.6565 83.2149 23.9725 83.1064 24.3091C82.998 24.6459 82.8047 24.9618 82.5261 25.2576C82.2476 25.5536 81.871 25.7471 81.3965 25.839C81.3759 25.6965 81.381 25.5076 81.412 25.273ZM86.7735 25.9001C86.6034 25.8494 86.441 25.8442 86.2861 25.8849C86.1315 25.9257 86.0334 26.0328 85.9924 26.2064C85.9095 26.5326 85.7778 26.8667 85.5974 27.2083C85.417 27.5501 85.1952 27.8738 84.9325 28.1799C84.6695 28.4858 84.3726 28.7562 84.0427 28.9907C83.7122 29.2253 83.3669 29.3936 83.0057 29.4955C82.6446 29.6079 82.3454 29.6205 82.1085 29.5337C81.871 29.4474 81.6828 29.2993 81.5437 29.0902C81.4043 28.8812 81.3036 28.6287 81.2419 28.3329C81.18 28.0371 81.1438 27.7312 81.1335 27.4148C81.7215 27.4558 82.245 27.3514 82.7043 27.1012C83.1629 26.8516 83.5525 26.5198 83.8723 26.1068C84.1918 25.6938 84.4345 25.2297 84.5995 24.7145C84.7644 24.1996 84.8573 23.687 84.878 23.1769C84.8883 22.6975 84.8163 22.2922 84.6614 21.9607C84.5068 21.6294 84.2977 21.3715 84.0347 21.1881C83.7719 21.0044 83.4698 20.8973 83.1297 20.8668C82.7895 20.8362 82.4435 20.8821 82.0927 21.0044C81.6696 21.1473 81.3113 21.3792 81.0173 21.7007C80.7233 22.0219 80.4783 22.3943 80.2824 22.8175C80.0865 23.2408 79.9316 23.6971 79.8183 24.1866C79.7047 24.6763 79.6221 25.1583 79.5708 25.6326C79.5243 26.0583 79.4994 26.4653 79.4907 26.8582C79.4684 26.908 79.4471 26.956 79.4236 27.0093C79.2635 27.3717 79.0776 27.7261 78.8665 28.0728C78.6551 28.4197 78.4202 28.7104 78.1626 28.9448C77.9047 29.1795 77.6365 29.261 77.358 29.1896C77.1928 29.149 77.1027 28.96 77.0872 28.6236C77.0717 28.2869 77.0895 27.8688 77.1411 27.369C77.1928 26.8694 77.2521 26.3285 77.3193 25.7471C77.3861 25.1658 77.4197 24.6101 77.4197 24.0797C77.4197 23.6206 77.3319 23.1797 77.1566 22.7561C76.981 22.3332 76.7412 21.9811 76.4372 21.7007C76.1329 21.42 75.7795 21.2339 75.3773 21.1423C74.9748 21.0502 74.5417 21.1116 74.0776 21.3257C73.6132 21.54 73.2443 21.8408 72.9712 22.2284C72.6976 22.6162 72.4474 23.024 72.2205 23.4524C72.1379 23.1259 72.0169 22.8227 71.8568 22.5421C71.697 22.2616 71.5011 22.0168 71.2691 21.8076C71.0367 21.5988 70.7759 21.4355 70.4877 21.3181C70.1989 21.2011 69.8942 21.1423 69.5743 21.1423C69.2651 21.1423 68.9789 21.2011 68.7158 21.3181C68.4528 21.4355 68.213 21.5858 67.9961 21.7694C67.7795 21.9532 67.5836 22.1595 67.4081 22.3891C67.2328 22.6185 67.0779 22.8456 66.944 23.0698C66.923 22.8047 66.9001 22.5727 66.8746 22.3736C66.8484 22.1748 66.8019 22.0065 66.7351 21.8689C66.668 21.7311 66.5728 21.6267 66.4489 21.5553C66.3249 21.484 66.1497 21.4481 65.9228 21.4481C65.8092 21.4481 65.6956 21.471 65.5823 21.5168C65.4687 21.5629 65.368 21.6267 65.2805 21.7082C65.1927 21.7901 65.1259 21.8893 65.0795 22.0065C65.033 22.1238 65.0204 22.2591 65.0407 22.412C65.051 22.5244 65.0795 22.6593 65.1259 22.8175C65.1721 22.9757 65.216 23.1824 65.2573 23.437C65.2986 23.6921 65.3322 24.0007 65.358 24.3627C65.3838 24.7249 65.3912 25.1686 65.3812 25.6938C65.3706 26.2192 65.3322 26.8335 65.265 27.5373C65.1979 28.2411 65.092 29.057 64.9478 29.985C64.9271 30.1993 65.0097 30.3728 65.1956 30.5054C65.3812 30.6378 65.5926 30.7142 65.8298 30.7348C66.0671 30.7552 66.2917 30.7142 66.5031 30.6125C66.7145 30.5102 66.8358 30.3319 66.8665 30.077C66.8975 29.5976 66.9569 29.0877 67.0446 28.547C67.1321 28.0066 67.2406 27.4711 67.3697 26.9406C67.4984 26.4104 67.6453 25.9055 67.8105 25.4259C67.9755 24.9465 68.1588 24.5234 68.3598 24.1561C68.5612 23.7889 68.7701 23.4958 68.9866 23.2765C69.2032 23.0572 69.4301 22.9475 69.6676 22.9475C69.9561 22.9475 70.1805 23.0774 70.3405 23.3375C70.5003 23.5977 70.6136 23.932 70.681 24.3396C70.7478 24.7478 70.7788 25.1942 70.774 25.6784C70.7685 26.1629 70.7478 26.6295 70.712 27.0782C70.6759 27.5272 70.6346 27.9274 70.5881 28.2793C70.5416 28.6312 70.508 28.8736 70.4877 29.006C70.4877 29.2407 70.5778 29.4266 70.7582 29.5644C70.9386 29.702 71.1397 29.7837 71.3617 29.8092C71.5838 29.8348 71.7922 29.7938 71.9885 29.6867C72.1844 29.5795 72.298 29.3989 72.329 29.1436C72.4319 28.4093 72.5739 27.6726 72.7544 26.9331C72.9348 26.1936 73.1413 25.5307 73.3734 24.9442C73.6054 24.3576 73.8633 23.8782 74.147 23.5059C74.4307 23.1339 74.7325 22.9475 75.0523 22.9475C75.2172 22.9475 75.3437 23.0599 75.4312 23.2841C75.519 23.5084 75.5629 23.8144 75.5629 24.202C75.5629 24.4877 75.5397 24.7809 75.4935 25.0818C75.4467 25.3826 75.3928 25.6938 75.3308 26.015C75.2689 26.3364 75.2146 26.6652 75.1682 27.0018C75.122 27.3385 75.0988 27.6902 75.0988 28.0575C75.0988 28.3125 75.1246 28.6083 75.1762 28.9448C75.2276 29.2812 75.3253 29.6003 75.4699 29.901C75.6145 30.202 75.813 30.4569 76.0661 30.6659C76.3188 30.8749 76.6409 30.9796 77.0327 30.9796C77.621 30.9796 78.1416 30.8546 78.5957 30.6048C79.0495 30.355 79.4391 30.0287 79.7641 29.6258C79.7809 29.6046 79.7964 29.5821 79.8128 29.5611C79.8377 29.6207 79.8596 29.6838 79.8877 29.7404C80.1094 30.1892 80.4112 30.5358 80.793 30.7808C81.1745 31.0256 81.6234 31.1606 82.1395 31.1863C82.6549 31.2115 83.2171 31.1172 83.8262 30.9031C84.2796 30.7399 84.6743 30.5358 85.0097 30.2911C85.3447 30.0464 85.6464 29.748 85.9146 29.3961C86.1832 29.0442 86.4278 28.6388 86.6499 28.1799C86.8719 27.7207 87.0959 27.1957 87.3228 26.6039C87.3641 26.441 87.3254 26.2956 87.2069 26.168C87.0882 26.0406 86.9439 25.9513 86.7735 25.9001Z" fill="#0E1422"/>
<path fill-rule="evenodd" clip-rule="evenodd" d="M95.1833 24.1936C95.1316 24.4946 95.0622 24.8263 94.9745 25.1881C94.8867 25.5503 94.776 25.9251 94.6417 26.3127C94.5078 26.7003 94.3425 27.0497 94.1466 27.3606C93.9507 27.6719 93.7261 27.919 93.4737 28.1026C93.2207 28.2863 92.9295 28.3627 92.5994 28.3321C92.4341 28.3119 92.3076 28.1997 92.2201 27.9955C92.1324 27.7917 92.0862 27.5314 92.0807 27.2152C92.0755 26.8992 92.1039 26.5524 92.1659 26.1749C92.2279 25.7978 92.3231 25.4278 92.4525 25.0656C92.5813 24.7038 92.7385 24.3696 92.924 24.0635C93.1099 23.7576 93.3239 23.5204 93.5663 23.3522C93.8087 23.1839 94.0746 23.1051 94.3632 23.115C94.652 23.1253 94.9615 23.2679 95.2917 23.5433C95.2707 23.6761 95.2349 23.8929 95.1833 24.1936ZM100.684 25.364C100.524 25.2824 100.359 25.2648 100.189 25.3106C100.019 25.3564 99.8976 25.5121 99.8257 25.7772C99.7843 26.0629 99.6914 26.3993 99.5471 26.7869C99.4025 27.1745 99.2244 27.5419 99.0133 27.8884C98.8016 28.2352 98.5592 28.5234 98.2858 28.7528C98.0125 28.9825 97.721 29.0871 97.4118 29.0663C97.1536 29.0461 96.9729 28.9161 96.8703 28.6764C96.7667 28.4367 96.7128 28.136 96.7076 27.7736C96.7021 27.4118 96.7386 27.0039 96.8157 26.5499C96.8932 26.0961 96.9861 25.6448 97.0942 25.1957C97.2027 24.7471 97.3137 24.316 97.4273 23.903C97.5406 23.49 97.6332 23.1406 97.7059 22.8551C97.7882 22.6 97.7623 22.3835 97.6284 22.2047C97.4941 22.0265 97.3266 21.8988 97.1256 21.8223C96.9242 21.7458 96.7202 21.7254 96.5139 21.7612C96.3077 21.7969 96.1738 21.9065 96.1118 22.09C95.5031 21.5698 94.9177 21.2893 94.3558 21.2486C93.7932 21.2078 93.2749 21.3303 92.8004 21.6158C92.3257 21.9013 91.9055 22.3143 91.5395 22.8551C91.1731 23.3958 90.8765 23.9847 90.6493 24.6221C90.4224 25.2595 90.2808 25.9099 90.224 26.5728C90.1672 27.2358 90.211 27.8402 90.3556 28.3858C90.5002 28.9314 90.7552 29.3778 91.1215 29.7243C91.4875 30.0711 91.9855 30.2447 92.6149 30.2447C92.8934 30.2447 93.1616 30.1886 93.4195 30.0764C93.677 29.964 93.9146 29.8315 94.1311 29.6785C94.3477 29.5255 94.5384 29.3648 94.704 29.1966C94.8686 29.0283 94.9977 28.8882 95.0906 28.7758C95.1626 29.143 95.2814 29.4543 95.4466 29.7092C95.6112 29.964 95.7997 30.1734 96.0111 30.3363C96.2225 30.4993 96.4446 30.6193 96.6766 30.6959C96.9087 30.7724 97.1333 30.8106 97.3495 30.8106C97.8346 30.8106 98.2881 30.6474 98.7115 30.3209C99.1343 29.9949 99.5136 29.5943 99.8489 29.1201C100.184 28.6457 100.46 28.1461 100.676 27.6207C100.893 27.0955 101.038 26.6289 101.11 26.2207C101.182 26.0677 101.169 25.9072 101.071 25.739C100.973 25.5707 100.844 25.4459 100.684 25.364Z" fill="#0E1422"/>
<path fill-rule="evenodd" clip-rule="evenodd" d="M128.537 33.8103C128.45 34.1568 128.313 34.4505 128.127 34.6901C127.942 34.9296 127.71 35.0545 127.431 35.0651C127.256 35.075 127.122 34.9831 127.029 34.7897C126.936 34.5956 126.871 34.3458 126.835 34.04C126.799 33.7338 126.784 33.3921 126.789 33.0148C126.794 32.6375 126.809 32.2651 126.835 31.8979C126.861 31.5309 126.892 31.1889 126.928 30.8729C126.964 30.5565 126.992 30.3122 127.013 30.1387C127.364 30.1794 127.656 30.3296 127.887 30.5899C128.12 30.85 128.298 31.1584 128.421 31.5156C128.545 31.8725 128.617 32.2577 128.638 32.6705C128.658 33.0837 128.625 33.4635 128.537 33.8103ZM122.936 33.8103C122.848 34.1568 122.712 34.4505 122.526 34.6901C122.34 34.9296 122.108 35.0545 121.83 35.0651C121.654 35.075 121.52 34.9831 121.427 34.7897C121.334 34.5956 121.27 34.3458 121.234 34.04C121.198 33.7338 121.182 33.3921 121.188 33.0148C121.192 32.6375 121.208 32.2651 121.234 31.8979C121.26 31.5309 121.291 31.1889 121.327 30.8729C121.363 30.5565 121.391 30.3122 121.412 30.1387C121.762 30.1794 122.054 30.3296 122.286 30.5899C122.518 30.85 122.696 31.1584 122.82 31.5156C122.944 31.8725 123.016 32.2577 123.037 32.6705C123.057 33.0837 123.023 33.4635 122.936 33.8103ZM117.188 25.1205C117.177 25.3651 117.154 25.5819 117.118 25.7705C117.082 25.9596 117.033 26.0792 116.971 26.1302C116.857 26.0689 116.718 25.9111 116.553 25.6558C116.388 25.401 116.259 25.1126 116.166 24.7913C116.073 24.4701 116.045 24.1541 116.081 23.8428C116.117 23.5319 116.28 23.2898 116.568 23.1161C116.682 23.055 116.78 23.0779 116.862 23.185C116.945 23.2921 117.012 23.4476 117.064 23.6516C117.115 23.8558 117.151 24.0903 117.172 24.3554C117.193 24.6207 117.198 24.8756 117.188 25.1205ZM115.818 28.1727C115.658 28.3407 115.48 28.4861 115.284 28.6086C115.088 28.7311 114.887 28.8229 114.681 28.884C114.474 28.9454 114.289 28.9605 114.124 28.9298C113.66 28.8382 113.304 28.6391 113.056 28.3332C112.808 28.0273 112.651 27.6678 112.584 27.2548C112.517 26.8416 112.524 26.4004 112.607 25.9313C112.69 25.4621 112.829 25.0262 113.025 24.6232C113.221 24.2203 113.458 23.8734 113.737 23.5829C114.015 23.2921 114.32 23.1113 114.65 23.0396C114.526 23.5598 114.485 24.098 114.526 24.6537C114.567 25.2096 114.701 25.7323 114.928 26.2218C115.073 26.518 115.245 26.788 115.447 27.0327C115.648 27.2777 115.893 27.4867 116.182 27.6601C116.099 27.8336 115.978 28.0044 115.818 28.1727ZM132.94 25.2735C132.971 25.039 133.017 24.7913 133.079 24.5312C133.141 24.2713 133.218 24.0188 133.311 23.7741C133.404 23.5291 133.512 23.3176 133.636 23.1392C133.76 22.9608 133.891 22.8331 134.031 22.7566C134.17 22.6802 134.312 22.6877 134.456 22.7795C134.611 22.8715 134.706 23.0652 134.742 23.3608C134.778 23.6569 134.742 23.9728 134.634 24.3096C134.526 24.6461 134.332 24.9623 134.054 25.2579C133.776 25.5541 133.399 25.7476 132.924 25.8394C132.904 25.6968 132.909 25.5081 132.94 25.2735ZM139.176 25.2735C139.207 25.039 139.253 24.7913 139.315 24.5312C139.377 24.2713 139.454 24.0188 139.547 23.7741C139.64 23.5291 139.748 23.3176 139.872 23.1392C139.996 22.9608 140.128 22.8331 140.267 22.7566C140.406 22.6802 140.548 22.6877 140.692 22.7795C140.847 22.8715 140.942 23.0652 140.978 23.3608C141.015 23.6569 140.978 23.9728 140.87 24.3096C140.762 24.6461 140.568 24.9623 140.29 25.2579C140.011 25.5541 139.635 25.7476 139.16 25.8394C139.14 25.6968 139.145 25.5081 139.176 25.2735ZM144.971 26.1684C144.852 26.0411 144.708 25.9518 144.538 25.9006C144.367 25.8497 144.205 25.8447 144.05 25.8855C143.895 25.9262 143.797 26.0334 143.756 26.2067C143.673 26.5332 143.542 26.8672 143.362 27.2086C143.181 27.5506 142.959 27.8743 142.696 28.1802C142.433 28.4861 142.136 28.7567 141.807 28.9912C141.476 29.2258 141.131 29.3941 140.77 29.4958C140.408 29.6084 140.109 29.621 139.872 29.5342C139.635 29.4477 139.447 29.2998 139.307 29.0907C139.168 28.8815 139.068 28.6292 139.005 28.3332C138.944 28.0376 138.907 27.7317 138.897 27.4153C139.485 27.4562 140.009 27.3518 140.468 27.1016C140.927 26.8518 141.316 26.5201 141.636 26.1071C141.956 25.6943 142.198 25.2302 142.363 24.7151C142.528 24.1999 142.621 23.6875 142.642 23.1774C142.652 22.698 142.58 22.2925 142.425 21.961C142.271 21.6297 142.062 21.3719 141.799 21.1885C141.535 21.0047 141.234 20.8978 140.893 20.8671C140.553 20.8364 140.207 20.8827 139.856 21.0047C139.433 21.1478 139.075 21.3797 138.781 21.701C138.487 22.0224 138.242 22.3948 138.046 22.8178C137.85 23.2413 137.695 23.6974 137.582 24.1871C137.468 24.6766 137.386 25.1588 137.335 25.6329C137.284 26.0931 137.257 26.5335 137.251 26.9551C137.212 27.0391 137.17 27.1236 137.125 27.2086C136.945 27.5506 136.723 27.8743 136.46 28.1802C136.197 28.4861 135.9 28.7567 135.57 28.9912C135.24 29.2258 134.895 29.3941 134.534 29.4958C134.172 29.6084 133.873 29.621 133.636 29.5342C133.399 29.4477 133.211 29.2998 133.071 29.0907C132.932 28.8815 132.832 28.6292 132.77 28.3332C132.708 28.0376 132.672 27.7317 132.661 27.4153C133.249 27.4562 133.773 27.3518 134.232 27.1016C134.691 26.8518 135.08 26.5201 135.4 26.1071C135.72 25.6943 135.962 25.2302 136.127 24.7151C136.292 24.1999 136.385 23.6875 136.406 23.1774C136.416 22.698 136.344 22.2925 136.189 21.961C136.035 21.6297 135.825 21.3719 135.562 21.1885C135.299 21.0047 134.998 20.8978 134.657 20.8671C134.317 20.8364 133.971 20.8827 133.621 21.0047C133.197 21.1478 132.839 21.3797 132.545 21.701C132.251 22.0224 132.006 22.3948 131.81 22.8178C131.614 23.2413 131.46 23.6974 131.346 24.1871C131.232 24.6766 131.15 25.1588 131.098 25.6329C131.069 25.9004 131.05 26.1597 131.035 26.4143C130.935 26.4982 130.838 26.5826 130.735 26.6655C130.379 26.9512 130.005 27.2086 129.613 27.4382C129.221 27.6678 128.813 27.8565 128.391 28.0044C127.967 28.1523 127.534 28.2416 127.091 28.272L128.05 18.1133C128.112 17.899 128.081 17.7106 127.957 17.5473C127.834 17.3841 127.673 17.2719 127.478 17.2108C127.282 17.1494 127.073 17.1546 126.851 17.2259C126.629 17.2975 126.446 17.4608 126.301 17.7154C126.229 18.1032 126.154 18.6335 126.077 19.3066C126 19.9797 125.922 20.7142 125.845 21.5098C125.768 22.3054 125.69 23.1264 125.613 23.9728C125.536 24.8197 125.468 25.61 125.412 26.3443C125.409 26.3769 125.407 26.4064 125.405 26.4386C125.314 26.5143 125.227 26.5906 125.133 26.6655C124.777 26.9512 124.403 27.2086 124.011 27.4382C123.619 27.6678 123.212 27.8565 122.789 28.0044C122.366 28.1523 121.932 28.2416 121.489 28.272L122.449 18.1133C122.511 17.899 122.48 17.7106 122.356 17.5473C122.232 17.3841 122.072 17.2719 121.876 17.2108C121.68 17.1494 121.471 17.1546 121.249 17.2259C121.027 17.2975 120.844 17.4608 120.7 17.7154C120.628 18.1032 120.553 18.6335 120.476 19.3066C120.398 19.9797 120.321 20.7142 120.244 21.5098C120.166 22.3054 120.089 23.1264 120.011 23.9728C119.934 24.8197 119.867 25.61 119.81 26.3443C119.809 26.359 119.808 26.3724 119.807 26.3872C119.645 26.4615 119.468 26.5267 119.276 26.5815C119.08 26.6377 118.859 26.6709 118.611 26.6811C118.652 26.4972 118.686 26.2932 118.711 26.0689C118.737 25.8447 118.758 25.61 118.774 25.3651C118.789 25.1205 118.794 24.8756 118.789 24.6308C118.784 24.3859 118.771 24.1617 118.751 23.9575C118.699 23.5192 118.603 23.1035 118.464 22.7106C118.325 22.3182 118.137 21.9894 117.899 21.7239C117.662 21.4587 117.366 21.2802 117.009 21.1885C116.654 21.0967 116.238 21.1272 115.764 21.2802C115.062 21.1885 114.431 21.2524 113.868 21.4715C113.306 21.6911 112.818 22.0096 112.406 22.4276C111.994 22.8461 111.656 23.3379 111.393 23.9041C111.13 24.4701 110.954 25.0516 110.866 25.6481C110.829 25.901 110.811 26.1527 110.806 26.4039C110.646 26.7272 110.471 27.0098 110.278 27.247C110.005 27.5836 109.721 27.859 109.427 28.0731C109.133 28.2874 108.842 28.4506 108.553 28.5628C108.264 28.6752 108.006 28.7516 107.779 28.7922C107.511 28.8433 107.253 28.8485 107.006 28.8076C106.758 28.767 106.531 28.6495 106.325 28.4557C106.16 28.313 106.033 28.0834 105.946 27.7672C105.858 27.451 105.807 27.0918 105.791 26.6886C105.776 26.2857 105.791 25.8649 105.837 25.4264C105.884 24.988 105.964 24.5722 106.077 24.1796C106.191 23.7869 106.335 23.435 106.511 23.1237C106.686 22.8129 106.892 22.5909 107.13 22.4583C107.263 22.4789 107.346 22.5577 107.377 22.6953C107.408 22.8331 107.416 22.9963 107.4 23.185C107.385 23.3738 107.362 23.5676 107.331 23.7663C107.3 23.9653 107.284 24.1312 107.284 24.2636C107.336 24.539 107.436 24.7533 107.586 24.9062C107.736 25.0592 107.903 25.1487 108.089 25.1739C108.275 25.1995 108.458 25.1562 108.639 25.0438C108.819 24.9318 108.966 24.7533 109.079 24.5083C109.089 24.5186 109.105 24.5237 109.126 24.5237L109.342 22.5808C109.404 22.3154 109.363 22.081 109.219 21.877C109.074 21.673 108.883 21.5556 108.646 21.5251C108.347 21.0967 107.942 20.8698 107.431 20.8442C106.921 20.8188 106.397 20.9845 105.861 21.3415C105.531 21.5763 105.239 21.8999 104.986 22.3129C104.733 22.7262 104.527 23.185 104.368 23.6898C104.207 24.1947 104.094 24.7279 104.027 25.2888C103.96 25.8497 103.947 26.3955 103.988 26.9256C104.029 27.4562 104.125 27.956 104.275 28.425C104.424 28.8943 104.633 29.287 104.901 29.603C105.128 29.8784 105.386 30.08 105.675 30.2075C105.964 30.3351 106.265 30.4139 106.58 30.4445C106.895 30.475 107.207 30.4622 107.516 30.4063C107.826 30.3504 108.12 30.2714 108.398 30.1691C108.759 30.0367 109.131 29.8683 109.513 29.6643C109.894 29.4605 110.26 29.2155 110.611 28.9298C110.796 28.7796 110.973 28.6158 111.145 28.4401C111.223 28.6319 111.311 28.8174 111.416 28.9912C111.694 29.45 112.071 29.8225 112.545 30.108C113.02 30.3935 113.603 30.5309 114.294 30.521C115.037 30.5107 115.723 30.3248 116.352 29.9626C116.981 29.6008 117.497 29.0674 117.899 28.3638C118.502 28.3638 119.095 28.2656 119.678 28.0706C119.673 28.1323 119.668 28.1973 119.663 28.2569C119.622 28.7975 119.601 29.1645 119.601 29.3584C119.591 29.6949 119.568 30.1105 119.532 30.6051C119.496 31.0998 119.472 31.62 119.462 32.1655C119.452 32.7112 119.473 33.262 119.524 33.818C119.576 34.3737 119.684 34.8787 119.849 35.3328C120.014 35.7863 120.248 36.1716 120.553 36.488C120.857 36.8038 121.257 36.9928 121.752 37.0539C122.278 37.125 122.732 37.0334 123.114 36.7785C123.496 36.5233 123.805 36.1742 124.043 35.7306C124.28 35.2867 124.447 34.7743 124.545 34.193C124.643 33.6114 124.672 33.0276 124.631 32.4409C124.589 31.8545 124.481 31.3013 124.305 30.7813C124.13 30.2609 123.887 29.8325 123.578 29.4958C123.764 29.4451 123.985 29.3483 124.244 29.2053C124.501 29.0626 124.767 28.9019 125.041 28.7233C125.108 28.6794 125.174 28.6332 125.241 28.5882C125.216 28.9496 125.203 29.2074 125.203 29.3584C125.193 29.6949 125.17 30.1105 125.133 30.6051C125.097 31.0998 125.074 31.62 125.064 32.1655C125.053 32.7112 125.074 33.262 125.126 33.818C125.177 34.3737 125.285 34.8787 125.45 35.3328C125.615 35.7863 125.85 36.1716 126.154 36.488C126.459 36.8038 126.859 36.9928 127.354 37.0539C127.88 37.125 128.333 37.0334 128.715 36.7785C129.097 36.5233 129.407 36.1742 129.644 35.7306C129.881 35.2867 130.049 34.7743 130.147 34.193C130.245 33.6114 130.273 33.0276 130.232 32.4409C130.191 31.8545 130.082 31.3013 129.907 30.7813C129.731 30.2609 129.489 29.8325 129.179 29.4958C129.365 29.4451 129.587 29.3483 129.845 29.2053C130.103 29.0626 130.368 28.9019 130.642 28.7233C130.784 28.6305 130.925 28.5349 131.066 28.4364C131.119 28.9352 131.233 29.3728 131.415 29.7408C131.637 30.1897 131.939 30.5364 132.321 30.7813C132.702 31.0258 133.151 31.1611 133.667 31.1866C134.183 31.2118 134.745 31.1177 135.354 30.9034C135.808 30.7403 136.202 30.5364 136.537 30.2916C136.872 30.0466 137.174 29.7483 137.443 29.3966C137.458 29.3762 137.473 29.3541 137.488 29.3336C137.536 29.4764 137.589 29.6136 137.651 29.7408C137.874 30.1897 138.175 30.5364 138.557 30.7813C138.938 31.0258 139.387 31.1611 139.903 31.1866C140.419 31.2118 140.981 31.1177 141.59 30.9034C142.044 30.7403 142.438 30.5364 142.773 30.2916C143.108 30.0466 143.41 29.7483 143.679 29.3966C143.947 29.0445 144.192 28.6391 144.414 28.1802C144.635 27.7212 144.86 27.1962 145.087 26.6044C145.128 26.4413 145.089 26.296 144.971 26.1684Z" fill="#0E1422"/>
</svg>
